<?xml version="1.0" encoding="UTF-8" standalone="no"?>
<!DOCTYPE svg PUBLIC "-//W3C//DTD SVG 1.1//EN"
 "http://www.w3.org/Graphics/SVG/1.1/DTD/svg11.dtd">
<!-- Generated by graphviz version 2.42.4 (0)
 -->
<!-- Pages: 1 -->
<svg width="1769pt" height="210pt"
 viewBox="0.00 0.00 1769.49 210.00" xmlns="http://www.w3.org/2000/svg" xmlns:xlink="http://www.w3.org/1999/xlink">
<g id="graph0" class="graph" transform="scale(1 1) rotate(0) translate(4 206)">
<polygon fill="white" stroke="transparent" points="-4,4 -4,-206 1765.49,-206 1765.49,4 -4,4"/>
<!-- 139863755708432 -->
<g id="node1" class="node">
<title>139863755708432</title>
<polygon fill="none" stroke="black" points="398,-165.5 398,-201.5 640,-201.5 640,-165.5 398,-165.5"/>
<text text-anchor="middle" x="408.5" y="-179.8" font-family="Times,serif" font-size="14.00"> </text>
<polyline fill="none" stroke="black" points="419,-165.5 419,-201.5 "/>
<text text-anchor="middle" x="474" y="-179.8" font-family="Times,serif" font-size="14.00">data=0.0000</text>
<polyline fill="none" stroke="black" points="529,-165.5 529,-201.5 "/>
<text text-anchor="middle" x="584.5" y="-179.8" font-family="Times,serif" font-size="14.00">grad=1.0000</text>
</g>
<!-- 139863758700624+ -->
<g id="node4" class="node">
<title>139863758700624+</title>
<ellipse fill="none" stroke="black" cx="716" cy="-128.5" rx="27" ry="18"/>
<text text-anchor="middle" x="716" y="-124.8" font-family="Times,serif" font-size="14.00">+</text>
</g>
<!-- 139863755708432&#45;&gt;139863758700624+ -->
<g id="edge8" class="edge">
<title>139863755708432&#45;&gt;139863758700624+</title>
<path fill="none" stroke="black" d="M621.2,-165.44C632.02,-162.77 642.8,-159.79 653,-156.5 663.73,-153.04 675.08,-148.26 685.1,-143.63"/>
<polygon fill="black" stroke="black" points="686.7,-146.75 694.23,-139.29 683.7,-140.43 686.7,-146.75"/>
</g>
<!-- 139863754360384 -->
<g id="node2" class="node">
<title>139863754360384</title>
<polygon fill="none" stroke="black" points="8.5,-138.5 8.5,-174.5 250.5,-174.5 250.5,-138.5 8.5,-138.5"/>
<text text-anchor="middle" x="19" y="-152.8" font-family="Times,serif" font-size="14.00"> </text>
<polyline fill="none" stroke="black" points="29.5,-138.5 29.5,-174.5 "/>
<text text-anchor="middle" x="84.5" y="-152.8" font-family="Times,serif" font-size="14.00">data=3.0000</text>
<polyline fill="none" stroke="black" points="139.5,-138.5 139.5,-174.5 "/>
<text text-anchor="middle" x="195" y="-152.8" font-family="Times,serif" font-size="14.00">grad=0.9855</text>
</g>
<!-- 139863758297936* -->
<g id="node13" class="node">
<title>139863758297936*</title>
<ellipse fill="none" stroke="black" cx="322" cy="-128.5" rx="27" ry="18"/>
<text text-anchor="middle" x="322" y="-124.8" font-family="Times,serif" font-size="14.00">*</text>
</g>
<!-- 139863754360384&#45;&gt;139863758297936* -->
<g id="edge14" class="edge">
<title>139863754360384&#45;&gt;139863758297936*</title>
<path fill="none" stroke="black" d="M250.61,-138.85C263.07,-137.01 274.92,-135.27 285.22,-133.76"/>
<polygon fill="black" stroke="black" points="285.98,-137.19 295.36,-132.27 284.96,-130.26 285.98,-137.19"/>
</g>
<!-- 139863758700624 -->
<g id="node3" class="node">
<title>139863758700624</title>
<polygon fill="none" stroke="black" points="779,-110.5 779,-146.5 1021,-146.5 1021,-110.5 779,-110.5"/>
<text text-anchor="middle" x="789.5" y="-124.8" font-family="Times,serif" font-size="14.00"> </text>
<polyline fill="none" stroke="black" points="800,-110.5 800,-146.5 "/>
<text text-anchor="middle" x="855" y="-124.8" font-family="Times,serif" font-size="14.00">data=2.9566</text>
<polyline fill="none" stroke="black" points="910,-110.5 910,-146.5 "/>
<text text-anchor="middle" x="965.5" y="-124.8" font-family="Times,serif" font-size="14.00">grad=1.0000</text>
</g>
<!-- 139863758185808+ -->
<g id="node9" class="node">
<title>139863758185808+</title>
<ellipse fill="none" stroke="black" cx="1084" cy="-100.5" rx="27" ry="18"/>
<text text-anchor="middle" x="1084" y="-96.8" font-family="Times,serif" font-size="14.00">+</text>
</g>
<!-- 139863758700624&#45;&gt;139863758185808+ -->
<g id="edge10" class="edge">
<title>139863758700624&#45;&gt;139863758185808+</title>
<path fill="none" stroke="black" d="M1018.06,-110.49C1028.68,-108.86 1038.78,-107.3 1047.71,-105.93"/>
<polygon fill="black" stroke="black" points="1048.27,-109.38 1057.62,-104.4 1047.21,-102.47 1048.27,-109.38"/>
</g>
<!-- 139863758700624+&#45;&gt;139863758700624 -->
<g id="edge1" class="edge">
<title>139863758700624+&#45;&gt;139863758700624</title>
<path fill="none" stroke="black" d="M743.08,-128.5C750.59,-128.5 759.34,-128.5 768.78,-128.5"/>
<polygon fill="black" stroke="black" points="768.85,-132 778.85,-128.5 768.85,-125 768.85,-132"/>
</g>
<!-- 139863754360688 -->
<g id="node5" class="node">
<title>139863754360688</title>
<polygon fill="none" stroke="black" points="393.5,-55.5 393.5,-91.5 644.5,-91.5 644.5,-55.5 393.5,-55.5"/>
<text text-anchor="middle" x="404" y="-69.8" font-family="Times,serif" font-size="14.00"> </text>
<polyline fill="none" stroke="black" points="414.5,-55.5 414.5,-91.5 "/>
<text text-anchor="middle" x="471.5" y="-69.8" font-family="Times,serif" font-size="14.00">data=&#45;2.0000</text>
<polyline fill="none" stroke="black" points="528.5,-55.5 528.5,-91.5 "/>
<text text-anchor="middle" x="586.5" y="-69.8" font-family="Times,serif" font-size="14.00">grad=&#45;0.1892</text>
</g>
<!-- 139863755601264* -->
<g id="node7" class="node">
<title>139863755601264*</title>
<ellipse fill="none" stroke="black" cx="716" cy="-73.5" rx="27" ry="18"/>
<text text-anchor="middle" x="716" y="-69.8" font-family="Times,serif" font-size="14.00">*</text>
</g>
<!-- 139863754360688&#45;&gt;139863755601264* -->
<g id="edge7" class="edge">
<title>139863754360688&#45;&gt;139863755601264*</title>
<path fill="none" stroke="black" d="M644.6,-73.5C656.9,-73.5 668.57,-73.5 678.75,-73.5"/>
<polygon fill="black" stroke="black" points="678.78,-77 688.78,-73.5 678.78,-70 678.78,-77"/>
</g>
<!-- 139863755601264 -->
<g id="node6" class="node">
<title>139863755601264</title>
<polygon fill="none" stroke="black" points="779,-55.5 779,-91.5 1021,-91.5 1021,-55.5 779,-55.5"/>
<text text-anchor="middle" x="789.5" y="-69.8" font-family="Times,serif" font-size="14.00"> </text>
<polyline fill="none" stroke="black" points="800,-55.5 800,-91.5 "/>
<text text-anchor="middle" x="855" y="-69.8" font-family="Times,serif" font-size="14.00">data=0.3784</text>
<polyline fill="none" stroke="black" points="910,-55.5 910,-91.5 "/>
<text text-anchor="middle" x="965.5" y="-69.8" font-family="Times,serif" font-size="14.00">grad=1.0000</text>
</g>
<!-- 139863755601264&#45;&gt;139863758185808+ -->
<g id="edge11" class="edge">
<title>139863755601264&#45;&gt;139863758185808+</title>
<path fill="none" stroke="black" d="M1021.13,-91.32C1030.54,-92.72 1039.48,-94.04 1047.5,-95.23"/>
<polygon fill="black" stroke="black" points="1047.05,-98.71 1057.46,-96.71 1048.08,-91.78 1047.05,-98.71"/>
</g>
<!-- 139863755601264*&#45;&gt;139863755601264 -->
<g id="edge2" class="edge">
<title>139863755601264*&#45;&gt;139863755601264</title>
<path fill="none" stroke="black" d="M743.08,-73.5C750.59,-73.5 759.34,-73.5 768.78,-73.5"/>
<polygon fill="black" stroke="black" points="768.85,-77 778.85,-73.5 768.85,-70 768.85,-77"/>
</g>
<!-- 139863758185808 -->
<g id="node8" class="node">
<title>139863758185808</title>
<polygon fill="none" stroke="black" points="1147,-82.5 1147,-118.5 1389,-118.5 1389,-82.5 1147,-82.5"/>
<text text-anchor="middle" x="1157.5" y="-96.8" font-family="Times,serif" font-size="14.00"> </text>
<polyline fill="none" stroke="black" points="1168,-82.5 1168,-118.5 "/>
<text text-anchor="middle" x="1223" y="-96.8" font-family="Times,serif" font-size="14.00">data=3.3351</text>
<polyline fill="none" stroke="black" points="1278,-82.5 1278,-118.5 "/>
<text text-anchor="middle" x="1333.5" y="-96.8" font-family="Times,serif" font-size="14.00">grad=1.0000</text>
</g>
<!-- 139863755578192relu -->
<g id="node11" class="node">
<title>139863755578192relu</title>
<ellipse fill="none" stroke="black" cx="1454.25" cy="-100.5" rx="29.5" ry="18"/>
<text text-anchor="middle" x="1454.25" y="-96.8" font-family="Times,serif" font-size="14.00">relu</text>
</g>
<!-- 139863758185808&#45;&gt;139863755578192relu -->
<g id="edge12" class="edge">
<title>139863758185808&#45;&gt;139863755578192relu</title>
<path fill="none" stroke="black" d="M1389.07,-100.5C1398.11,-100.5 1406.75,-100.5 1414.61,-100.5"/>
<polygon fill="black" stroke="black" points="1414.79,-104 1424.79,-100.5 1414.79,-97 1414.79,-104"/>
</g>
<!-- 139863758185808+&#45;&gt;139863758185808 -->
<g id="edge3" class="edge">
<title>139863758185808+&#45;&gt;139863758185808</title>
<path fill="none" stroke="black" d="M1111.08,-100.5C1118.59,-100.5 1127.34,-100.5 1136.78,-100.5"/>
<polygon fill="black" stroke="black" points="1136.85,-104 1146.85,-100.5 1136.85,-97 1136.85,-104"/>
</g>
<!-- 139863755578192 -->
<g id="node10" class="node">
<title>139863755578192</title>
<polygon fill="none" stroke="black" points="1519.49,-82.5 1519.49,-118.5 1761.49,-118.5 1761.49,-82.5 1519.49,-82.5"/>
<text text-anchor="middle" x="1529.99" y="-96.8" font-family="Times,serif" font-size="14.00"> </text>
<polyline fill="none" stroke="black" points="1540.49,-82.5 1540.49,-118.5 "/>
<text text-anchor="middle" x="1595.49" y="-96.8" font-family="Times,serif" font-size="14.00">data=3.3351</text>
<polyline fill="none" stroke="black" points="1650.49,-82.5 1650.49,-118.5 "/>
<text text-anchor="middle" x="1705.99" y="-96.8" font-family="Times,serif" font-size="14.00">grad=1.0000</text>
</g>
<!-- 139863755578192relu&#45;&gt;139863755578192 -->
<g id="edge4" class="edge">
<title>139863755578192relu&#45;&gt;139863755578192</title>
<path fill="none" stroke="black" d="M1483.63,-100.5C1491.12,-100.5 1499.71,-100.5 1508.92,-100.5"/>
<polygon fill="black" stroke="black" points="1509.14,-104 1519.14,-100.5 1509.14,-97 1509.14,-104"/>
</g>
<!-- 139863758297936 -->
<g id="node12" class="node">
<title>139863758297936</title>
<polygon fill="none" stroke="black" points="398,-110.5 398,-146.5 640,-146.5 640,-110.5 398,-110.5"/>
<text text-anchor="middle" x="408.5" y="-124.8" font-family="Times,serif" font-size="14.00"> </text>
<polyline fill="none" stroke="black" points="419,-110.5 419,-146.5 "/>
<text text-anchor="middle" x="474" y="-124.8" font-family="Times,serif" font-size="14.00">data=2.9566</text>
<polyline fill="none" stroke="black" points="529,-110.5 529,-146.5 "/>
<text text-anchor="middle" x="584.5" y="-124.8" font-family="Times,serif" font-size="14.00">grad=1.0000</text>
</g>
<!-- 139863758297936&#45;&gt;139863758700624+ -->
<g id="edge9" class="edge">
<title>139863758297936&#45;&gt;139863758700624+</title>
<path fill="none" stroke="black" d="M640.17,-128.5C654.06,-128.5 667.31,-128.5 678.69,-128.5"/>
<polygon fill="black" stroke="black" points="678.99,-132 688.99,-128.5 678.99,-125 678.99,-132"/>
</g>
<!-- 139863758297936*&#45;&gt;139863758297936 -->
<g id="edge5" class="edge">
<title>139863758297936*&#45;&gt;139863758297936</title>
<path fill="none" stroke="black" d="M349.3,-128.5C360.03,-128.5 373.28,-128.5 387.61,-128.5"/>
<polygon fill="black" stroke="black" points="387.68,-132 397.68,-128.5 387.68,-125 387.68,-132"/>
</g>
<!-- 139863755707792 -->
<g id="node14" class="node">
<title>139863755707792</title>
<polygon fill="none" stroke="black" points="385,-0.5 385,-36.5 653,-36.5 653,-0.5 385,-0.5"/>
<text text-anchor="middle" x="404" y="-14.8" font-family="Times,serif" font-size="14.00">w1</text>
<polyline fill="none" stroke="black" points="423,-0.5 423,-36.5 "/>
<text text-anchor="middle" x="480" y="-14.8" font-family="Times,serif" font-size="14.00">data=&#45;0.1892</text>
<polyline fill="none" stroke="black" points="537,-0.5 537,-36.5 "/>
<text text-anchor="middle" x="595" y="-14.8" font-family="Times,serif" font-size="14.00">grad=&#45;2.0000</text>
</g>
<!-- 139863755707792&#45;&gt;139863755601264* -->
<g id="edge13" class="edge">
<title>139863755707792&#45;&gt;139863755601264*</title>
<path fill="none" stroke="black" d="M617.21,-36.57C629.36,-39.53 641.54,-42.84 653,-46.5 663.48,-49.85 674.61,-54.37 684.49,-58.75"/>
<polygon fill="black" stroke="black" points="683.34,-62.07 693.89,-63.03 686.25,-55.7 683.34,-62.07"/>
</g>
<!-- 139863756990384 -->
<g id="node15" class="node">
<title>139863756990384</title>
<polygon fill="none" stroke="black" points="0,-83.5 0,-119.5 259,-119.5 259,-83.5 0,-83.5"/>
<text text-anchor="middle" x="19" y="-97.8" font-family="Times,serif" font-size="14.00">w0</text>
<polyline fill="none" stroke="black" points="38,-83.5 38,-119.5 "/>
<text text-anchor="middle" x="93" y="-97.8" font-family="Times,serif" font-size="14.00">data=0.9855</text>
<polyline fill="none" stroke="black" points="148,-83.5 148,-119.5 "/>
<text text-anchor="middle" x="203.5" y="-97.8" font-family="Times,serif" font-size="14.00">grad=3.0000</text>
</g>
<!-- 139863756990384&#45;&gt;139863758297936* -->
<g id="edge6" class="edge">
<title>139863756990384&#45;&gt;139863758297936*</title>
<path fill="none" stroke="black" d="M257.57,-119.51C267.55,-120.92 277,-122.26 285.42,-123.46"/>
<polygon fill="black" stroke="black" points="285.09,-126.95 295.48,-124.88 286.07,-120.01 285.09,-126.95"/>
</g>
</g>
</svg>
